<?xml version="1.0" encoding="utf-8"?>
<!-- Generator: Adobe Illustrator 16.0.0, SVG Export Plug-In . SVG Version: 6.00 Build 0)  -->
<!DOCTYPE svg PUBLIC "-//W3C//DTD SVG 1.1//EN" "http://www.w3.org/Graphics/SVG/1.1/DTD/svg11.dtd">
<svg version="1.1" id="Layer_1" xmlns="http://www.w3.org/2000/svg" xmlns:xlink="http://www.w3.org/1999/xlink" x="0px" y="0px"
	 width="719.309px" height="702.703px" viewBox="0 0 719.309 702.703" enable-background="new 0 0 719.309 702.703"
	 xml:space="preserve">
<g>
	<defs>
		<rect id="SVGID_1_" width="719.309" height="702.703"/>
	</defs>
	<clipPath id="SVGID_2_">
		<use xlink:href="#SVGID_1_"  overflow="visible"/>
	</clipPath>
	<g clip-path="url(#SVGID_2_)">
		<defs>
			<rect id="SVGID_3_" width="719.309" height="702.703"/>
		</defs>
		<clipPath id="SVGID_4_">
			<use xlink:href="#SVGID_3_"  overflow="visible"/>
		</clipPath>
		<g opacity="0.19" clip-path="url(#SVGID_4_)">
			<g>
				<defs>
					<rect id="SVGID_5_" x="29.876" y="435.397" width="83.652" height="38.369"/>
				</defs>
				<clipPath id="SVGID_6_">
					<use xlink:href="#SVGID_5_"  overflow="visible"/>
				</clipPath>
				<path clip-path="url(#SVGID_6_)" fill="#88BDEB" d="M29.875,454.581c0,10.596,18.726,19.186,41.826,19.186
					s41.826-8.59,41.826-19.186c0-10.595-18.726-19.185-41.826-19.185S29.875,443.986,29.875,454.581"/>
			</g>
		</g>
		<path clip-path="url(#SVGID_4_)" fill="#E1EEF9" d="M74.753,465.893c-13.091,7.559-34.383,7.521-47.556-0.086
			c-13.173-7.604-13.24-19.897-0.149-27.457c13.091-7.558,34.383-7.52,47.556,0.086C87.777,446.042,87.844,458.334,74.753,465.893"
			/>
		<polygon clip-path="url(#SVGID_4_)" fill="#E1EEF9" points="1.557,404.972 17.38,453.483 84.284,454.581 99.558,407.828 		"/>
		<path clip-path="url(#SVGID_4_)" fill="#C8D8E6" d="M78.78,406.896l-15.273,46.572h-0.01c-2.111,7.128-4.032,8.717-9.522,11.886
			c-3.969,2.292-8.698,4.271-13.72,5.132c11.299,1.899,23.883-0.235,32.728-5.342c5.489-3.17,8.656-4.775,9.522-11.676h0.009
			l15.273-46.572H78.78z"/>
		<path clip-path="url(#SVGID_4_)" fill="#FFFFFF" d="M86.137,422.23c-19.339,11.166-50.793,11.108-70.254-0.127
			c-19.461-11.234-19.559-29.395-0.22-40.561c19.339-11.166,50.793-11.109,70.254,0.127
			C105.378,392.905,105.477,411.065,86.137,422.23"/>
		<path clip-path="url(#SVGID_4_)" fill="#353559" d="M80.804,418.423c-16.601,9.584-43.6,9.535-60.304-0.108
			c-16.705-9.646-16.789-25.233-0.189-34.817s43.599-9.535,60.304,0.11C97.319,393.251,97.404,408.839,80.804,418.423"/>
		<path clip-path="url(#SVGID_4_)" fill="#00A2FF" d="M52.29,386.46c4.228-38.461,36.938-101.69,36.938-101.69
			c-42.157,12.513-44.937,54.177-44.937,54.177L52.29,386.46z"/>
		<path clip-path="url(#SVGID_4_)" fill="#00A2FF" d="M42.751,352.467c4.445-38.438-14.145-107.214-14.145-107.214
			c38.312,21.588,31.741,62.825,31.741,62.825L42.751,352.467z"/>
		<path clip-path="url(#SVGID_4_)" fill="#00A2FF" d="M107.351,306.08c-35.192,7.944-56.458,69.538-56.458,69.538l-0.009,0.125
			C49.583,297.25,0,276.437,0,276.437c14.807,21.546,28.752,94.955,32.964,118.671c1.583,8.913,9.483,15.438,18.525,15.004
			c0.501-0.024,1.006-0.064,1.514-0.12c7.741-0.843,13.838-6.89,15.349-14.527C74.853,362.609,107.351,306.08,107.351,306.08"/>
		<path clip-path="url(#SVGID_4_)" fill="#4265C2" d="M338.441,368.619L338.441,368.619c-2.289-0.396-3.823-2.574-3.427-4.864
			l19.903-114.83c0.396-2.29,2.574-3.824,4.863-3.427c2.289,0.396,3.824,2.574,3.427,4.864l-19.903,114.83
			C342.908,367.481,340.73,369.016,338.441,368.619"/>
		<path clip-path="url(#SVGID_4_)" fill="#DEA749" d="M440.596,222.976l-72.359,53.138c-11.773,6.819-20.309-0.443-20-12.646
			l-0.87-19.903c0.309-12.203,10.193-27.767,21.964-34.586l72.685-42.103c11.771-6.819,21.15-2.414,20.842,9.79l-0.296,11.724
			C462.253,200.593,452.367,216.157,440.596,222.976"/>
		<g opacity="0.43" clip-path="url(#SVGID_4_)">
			<g>
				<defs>
					<rect id="SVGID_7_" x="345.284" y="309.446" width="222.581" height="131.94"/>
				</defs>
				<clipPath id="SVGID_8_">
					<use xlink:href="#SVGID_7_"  overflow="visible"/>
				</clipPath>
				<path clip-path="url(#SVGID_8_)" fill="#88BDEB" d="M567.865,388.357c-22.003-40.95-73.229-61.613-129.304-78.911
					l-93.277,50.867l10.481,10.186l100.532,61.445l15.187,9.442L567.865,388.357z"/>
			</g>
		</g>
		<path clip-path="url(#SVGID_4_)" fill="#DEA749" d="M444.661,343.998l-92.542-62.537c-9.285-5.667-2.086-30.15,12.213-38.946
			l37.107-22.83c14.3-8.797,34.636-17.201,43.92-11.534l99.159,66.993c9.287,5.666,5.185,17.5-9.114,26.298l-37.108,22.829
			C483.997,333.068,453.946,349.665,444.661,343.998"/>
		<path clip-path="url(#SVGID_4_)" fill="#D84177" d="M440.77,350.278l-88.438-54.93c-8.938-5.454-8.413-11.815-8.413-11.815
			c-0.592-8.111,5.027-13.314,13.965-7.859l87.41,54.364c8.939,5.455,12.228,11.005,10.604,17.459
			C455.897,347.498,452.115,356.487,440.77,350.278"/>
		<path clip-path="url(#SVGID_4_)" fill="#283D75" d="M418.231,329.084c0,0-48.215-17.191-52.255-42.626l53.569-11.365
			L418.231,329.084z"/>
		<path clip-path="url(#SVGID_4_)" fill="#4265C2" d="M471.483,441.387L471.483,441.387c2.306-0.285,3.943-2.386,3.659-4.69
			l-14.287-115.663c-0.285-2.306-2.387-3.945-4.691-3.661c-2.306,0.286-3.945,2.386-3.66,4.692l14.288,115.664
			C467.077,440.033,469.177,441.671,471.483,441.387"/>
		<path clip-path="url(#SVGID_4_)" fill="#FFC2B0" d="M442.457,271.228c-18.014,7.359-33.566,19.323-47.366,32.914
			c-5.384,5.303-10.228,11.117-12.636,18.387c-1.936,5.837-1.72,12.005-1.795,18.056c-0.216,17.213-1.067,34.441-1.601,51.646
			c-0.208,6.721-0.417,13.439-0.625,20.159c-0.416,13.405,20.41,13.393,20.825,0c0.464-14.951,0.926-29.902,1.39-44.852
			c0.247-7.973,0.494-15.944,0.742-23.917c0.065-2.094,0.052-4.152,0.046-6.249c-0.004-1.734,0.022-3.474,0.163-5.204
			c0.017-0.209,0.308-2.09,0.045-0.595c0.121-0.687,0.271-1.377,0.449-2.051c0.449-1.695,1.185-3.302,2.174-4.655
			c5.169-7.079,12.879-13.138,19.642-18.615c7.242-5.865,15.422-11.406,24.083-14.944c5.201-2.126,8.89-6.925,7.272-12.81
			C453.912,273.574,447.693,269.088,442.457,271.228"/>
		<path clip-path="url(#SVGID_4_)" fill="#283D75" d="M397.275,431.038l-1.327-0.734c-0.756-0.419-1.031-1.38-0.612-2.136
			c0.418-0.756,1.379-1.03,2.134-0.612l1.327,0.734c0.756,0.419,1.032,1.38,0.613,2.137
			C398.991,431.183,398.03,431.457,397.275,431.038"/>
		<path clip-path="url(#SVGID_4_)" fill="#283D75" d="M395.128,428.836l0.174-7.12c0.02-0.863,0.745-1.553,1.608-1.531
			c0.863,0.02,1.553,0.744,1.531,1.607l-0.173,7.12c-0.021,0.864-0.745,1.554-1.608,1.532
			C395.797,430.424,395.106,429.7,395.128,428.836"/>
		<path clip-path="url(#SVGID_4_)" fill="#283D75" d="M402.167,402.213c-1.66-3.4-6.15-7.164-8.621-6.516l-6.755,10.27l-0.974,0.282
			c-3.66,4.473-22.292,23.412-27.383,30.261c-2.588,3.481,3.166,5.779,3.166,5.779c12.278,2.59,24.673-2.678,24.673-2.678
			c5.36-3.48,2.04-8.487,7.613-16.2c0.939-1.302,3.118-2.61,3.439-1.351l-0.666,8.384l2.939-0.489c0,0,2.045-11.959,3.83-19.997
			C404.171,406.623,403.581,403.815,402.167,402.213"/>
		<path clip-path="url(#SVGID_4_)" fill="#FFC2B0" d="M391.893,394.763l-5.571,4.392c0,0-14.225,21.119-16.92,25.343
			c-3.129,4.905,14.675,13.92,27.77-15.068C406.577,394.184,391.893,394.763,391.893,394.763"/>
		<path clip-path="url(#SVGID_4_)" fill="#FFC2B0" d="M411.364,256.492c-17.363,7.094-32.322,18.447-45.787,31.383
			c-5.578,5.36-10.618,11.328-12.854,18.876c-1.907,6.44-1.317,13.091-1.375,19.688c-0.139,16.051-1.381,32.167-2.071,48.203
			l-0.864,20.121c-0.576,13.4,20.251,13.372,20.825,0c0.623-14.507,1.247-29.014,1.87-43.52l0.973-22.652
			c0.114-2.647-0.021-5.274-0.035-7.928c-0.034-6.009-0.29-8.034,2.981-12.538c4.261-5.866,12.249-12.204,18.443-17.132
			c7.087-5.635,15.013-10.981,23.43-14.419c5.201-2.126,8.89-6.925,7.272-12.81C422.819,258.837,416.601,254.352,411.364,256.492"/>
		
			<path clip-path="url(#SVGID_4_)" fill="none" stroke="#FFC2B0" stroke-width="13.975" stroke-linecap="round" stroke-linejoin="round" stroke-miterlimit="10" d="
			M429.382,182.185c0,0-13.328,17.874-20.302,20.465c-16.288,6.052-4.703-34.078-19.89-67.862"/>
		<path clip-path="url(#SVGID_4_)" fill="#DBEFFF" d="M446.006,125.909c-4.045,10.913-6.986,22.321-11.326,33.107
			c-3.307,8.219-9.066,14.706-14.999,21.164c-10.469,11.394,6.112,28.94,16.645,17.476c7.968-8.67,15.452-17.38,20.094-28.299
			c5.021-11.81,8.236-24.434,12.695-36.467C474.524,118.295,451.38,111.406,446.006,125.909"/>
		<path clip-path="url(#SVGID_4_)" fill="#4265C2" d="M559.345,393.053L559.345,393.053c2.306-0.285,3.943-2.386,3.659-4.69
			l-14.288-115.665c-0.284-2.306-2.386-3.944-4.69-3.66c-2.307,0.286-3.945,2.386-3.66,4.692l14.288,115.663
			C554.938,391.699,557.037,393.337,559.345,393.053"/>
		<path clip-path="url(#SVGID_4_)" fill="#DEA749" d="M470.067,235.085c-20.577-10.216-29.802-34.567-21.156-55.852l22.867-56.302
			c6.282-15.469,22.862-21.897,35.909-13.921l52.172,31.897c9.399,5.746,14.447,17.59,12.621,29.608l-17.659,106.648
			L470.067,235.085z"/>
		<path clip-path="url(#SVGID_4_)" fill="#003D92" d="M462.16,71.75c-3.867,6.482-8.541,22.34-5.285,30.303
			c0.523,1.282,10.659,31.374,11.91,30.664c1.252-0.709,16.31-4.904,17.395-5.849c3.229-2.81,24.893,17.31,28.177,14.565
			c4.45-3.719,7.634-59.093,7.958-64.884c0.414-7.384-36.599-7.939-41.013-13.873c-0.865-1.162-1.886-2.216-2.593-3.48h-0.001
			c-1.026-1.833-1.471-5.233-4.133-4.881c-2.137,0.283-3.752,3.541-4.888,5.019C466.411,63.603,465.618,65.952,462.16,71.75"/>
		<path clip-path="url(#SVGID_4_)" fill="#5986FF" d="M440.735,224.21c-52.343,26.391-74.33,44.639-74.759,62.248
			c0,0,16.233-3.466,32.172,6.316c23.62,14.499,20.083,36.31,20.083,36.31s80.596-13.921,86.387-61.975
			c3.671-30.453,0.704-28.873,0.704-28.873S462.508,254.122,440.735,224.21"/>
		<path clip-path="url(#SVGID_4_)" fill="#D0E7F4" d="M521.226,133.439c-9.293-10.854-27.555-17.033-41.375-18.073
			c-3.875-0.292-4.013,5.741-0.146,6.032c12.274,0.924,28.931,6.6,37.152,16.202C519.387,140.556,523.746,136.383,521.226,133.439"
			/>
		<path clip-path="url(#SVGID_4_)" fill="#FFFFFF" d="M454.2,136.324c0,0-16.313,21.522-15.785,35.355
			c0.336,8.804,5.818,19.12,6.508,21.986c5.645,23.456,0.924,30.032,1.216,36.417c0,0,7.301,13.138,58.536,6l27.943-64.316
			L454.2,136.324z"/>
		<path clip-path="url(#SVGID_4_)" fill="#FFFFFF" d="M527.463,185.947c2.07-1.048,2.823-4.241,2.823-4.241
			c2.332-11.682,9.258-16.509-1.92-37.754c-1.796-3.413-28.674-20.264-49.459-25.808c-10.073-2.687-20.651,2.176-25.56,11.375
			c-2.87,5.379-6.114,16.217-6.113,16.222c-2.78,21.578,9.147-6.075,9.689,6.01c-0.027-0.293-0.077-0.593-0.097-0.884
			c0,0,0.958,20.418,1.657,36.224c0.426,9.858,0.718,16.989,0.718,17.986c-0.001,0.045-0.001,0.111-0.004,0.122l34.225,31.85
			l22.107-33.19L527.463,185.947z"/>
		<path clip-path="url(#SVGID_4_)" fill="#FFC2B0" d="M484.313,118.727c-2.631-0.617-5.36,0.344-7.127,2.389
			c-4.911,5.685-12.938,18.034-2.013,28.905c14.765,14.69,44.235-13.016,44.235-13.016
			C507.396,128.04,495.637,121.384,484.313,118.727"/>
		<path clip-path="url(#SVGID_4_)" fill="#FFC2B0" d="M485.625,130.974l-0.86-36.125l19.763,11.749l0.678,29.492
			C505.675,140.982,487.943,149.862,485.625,130.974"/>
		<path clip-path="url(#SVGID_4_)" fill="#EA8A6C" d="M485.694,121.803c0,0,10.723-2.664,10.78-2.748c0,0-4.901,6.206-10.296,7.814
			L485.694,121.803z"/>
		<path clip-path="url(#SVGID_4_)" fill="#DBEFFF" d="M522.195,179.317c-2.124,3.927-5.021,7.907-8.43,11.847
			c-8.768,10.137-22.766,13.872-35.503,9.695c-18.7-6.133-37.245-17.397-37.245-17.397s6.085,27.198,1.936,42.417
			c-1.924,7.058,2.624,1.774,2.624,1.774c-0.156,6.882,8.847,7.554,8.847,7.554c23.533,9.484,50.25,0.875,50.25,0.875l19.403-44.502
			L522.195,179.317z"/>
		<path clip-path="url(#SVGID_4_)" fill="#29479C" d="M437.533,221.02L437.533,221.02c-0.626,1.522-0.354,3.255,0.708,4.512
			c3.832,4.537,14.496,14.731,34.213,16.705c16.879,1.69,27.301,0.105,32.426-1.163c2.21-0.547,3.653-2.657,3.327-4.908
			l-0.199-1.379c-0.358-2.48-2.707-4.166-5.167-3.692c-9.498,1.832-31.86,4.994-45.521-2.45c-6.301-3.433-10.173-6.484-12.546-8.991
			C442.582,217.339,438.744,218.071,437.533,221.02"/>
		<path clip-path="url(#SVGID_4_)" fill="#FFFFFF" d="M475.395,117.067c-3.591,5.628-5.475,13.251-7.045,19.657
			c-1.556,6.338-0.946,10.105,4.703,14.326c15.768,11.781,34.888-1.754,47.316-11.964c3.005-2.469-1.173-6.824-4.162-4.369
			c-8.999,7.392-24.713,19.498-36.802,13.037c-8.043-4.3-5.522-9.083-3.321-15.98c1.207-3.783,2.289-8.157,4.444-11.535
			C482.622,116.956,477.482,113.794,475.395,117.067"/>
		<path clip-path="url(#SVGID_4_)" fill="#FFC2B0" d="M482.242,120.819l-6.491-2.078c-9.999-3.201-15.563-14.001-12.361-24
			l10.569-33.014c3.201-9.999,14-15.561,23.999-12.36l6.491,2.078c9.999,3.201,15.561,14.001,12.359,23.999l-10.567,33.015
			C503.04,118.458,492.241,124.02,482.242,120.819"/>
		<path clip-path="url(#SVGID_4_)" fill="#003D92" d="M499.729,77.17c-4.67-10.914-20.972-4.107-27.361-8.911
			c-6.935-5.212-2.021-12.463,5.095-17.425c3.82-2.664,8.251-4.567,16.221-5.246c22.312-1.899,40.109,12.357,34.405,35.363
			c0,0-0.283,34.953-19.775,34.4l-0.419-12.055c0,0,7.535-4.629-1.697-14.522c-2.156-2.31-2.262-2.392-0.95-6.111
			C506.574,78.898,501.299,80.84,499.729,77.17"/>
		<path clip-path="url(#SVGID_4_)" fill="#003D92" d="M462.364,84.918c0,0,3.272-10.386,32.213-16.966
			c28.938-6.579,1.312-0.31,1.312-0.31l-23.254-12.667C472.635,54.975,459.653,63.333,462.364,84.918"/>
		<path clip-path="url(#SVGID_4_)" fill="#FFFFFF" d="M472.6,99.339l10.258,4.52c0.423,0.187,0.652,0.639,0.534,1.109
			c-0.424,1.683-2.003,5.24-7.646,3.184c-3.954-1.441-4.693-5.371-4.769-7.699C470.951,99.633,471.862,99.014,472.6,99.339"/>
		<path clip-path="url(#SVGID_4_)" fill="#1F3B82" d="M489.028,92.447c-0.139,1.322-0.788,2.395-1.453,2.396
			c-0.664,0.001-1.091-1.07-0.953-2.392c0.137-1.322,0.788-2.394,1.453-2.395C488.739,90.055,489.166,91.125,489.028,92.447"/>
		<path clip-path="url(#SVGID_4_)" fill="#1F3B82" d="M472.664,86.085c-0.139,1.322-0.788,2.394-1.452,2.395
			c-0.665,0.001-1.091-1.07-0.953-2.392c0.137-1.322,0.788-2.394,1.452-2.395S472.802,84.763,472.664,86.085"/>
		<path clip-path="url(#SVGID_4_)" fill="#5169A8" d="M488.114,86.296c2.354,0.044,5.264,1.433,6.716,3.111
			c1.037,1.199,3.07-0.625,2.035-1.822c-1.874-2.165-5.45-3.806-8.482-3.863C486.706,83.69,486.438,86.265,488.114,86.296"/>
		<path clip-path="url(#SVGID_4_)" fill="#5169A8" d="M470.825,79.63c2.038-0.395,4.769,0.232,6.246,1.458
			c1.05,0.871,2.703-1.017,1.648-1.892c-1.902-1.578-5.183-2.447-7.825-1.936C469.445,77.541,469.366,79.913,470.825,79.63"/>
		<path clip-path="url(#SVGID_4_)" fill="#FFFFFF" d="M464.143,242.037l-9.606-4.092c-3.192-1.36-5.229-5.198-4.528-8.528
			c0.702-3.331,3.889-4.943,7.08-3.584l9.607,4.092c3.192,1.36,5.229,5.197,4.527,8.528
			C470.521,241.784,467.333,243.396,464.143,242.037"/>
		<path clip-path="url(#SVGID_4_)" fill="#29479C" d="M462.389,238.571l-5.564-2.37c-1.849-0.788-3.029-3.01-2.623-4.94
			c0.408-1.928,2.252-2.862,4.103-2.075l5.563,2.37c1.849,0.787,3.029,3.01,2.622,4.939
			C466.082,238.425,464.237,239.359,462.389,238.571"/>
		<path clip-path="url(#SVGID_4_)" fill="#FFE46E" d="M531.758,309.853l-72.685,42.104c-11.771,6.818-20.655,3.267-19.742-7.894
			l0.878-10.721c0.913-11.16,11.292-25.87,23.064-32.689l72.683-42.103c11.772-6.82,20.655-3.268,19.742,7.892l-0.878,10.721
			C553.907,288.324,543.528,303.034,531.758,309.853"/>
		<path clip-path="url(#SVGID_4_)" fill="#283D75" d="M366.182,416.303l-1.326-0.734c-0.756-0.42-1.031-1.381-0.613-2.137
			s1.379-1.03,2.135-0.611l1.327,0.734c0.755,0.419,1.032,1.38,0.613,2.135C367.898,416.446,366.938,416.721,366.182,416.303"/>
		<path clip-path="url(#SVGID_4_)" fill="#283D75" d="M364.035,414.1l0.173-7.12c0.021-0.862,0.745-1.553,1.607-1.531
			c0.865,0.021,1.555,0.744,1.532,1.607l-0.172,7.121c-0.021,0.863-0.745,1.553-1.609,1.531
			C364.703,415.688,364.014,414.964,364.035,414.1"/>
		<path clip-path="url(#SVGID_4_)" fill="#283D75" d="M371.073,387.477c-1.659-3.4-6.149-7.163-8.621-6.516l-6.754,10.27
			l-0.973,0.283c-3.66,4.474-22.293,23.411-27.383,30.26c-2.588,3.481,3.165,5.779,3.165,5.779
			c12.278,2.591,24.674-2.678,24.674-2.678c5.36-3.48,2.04-8.487,7.612-16.2c0.941-1.302,3.119-2.61,3.441-1.351l-0.667,8.384
			l2.939-0.488c0,0,2.044-11.96,3.83-19.997C373.078,391.887,372.488,389.079,371.073,387.477"/>
		<path clip-path="url(#SVGID_4_)" fill="#FFC2B0" d="M360.8,380.026l-5.572,4.392c0,0-14.225,21.12-16.919,25.343
			c-3.129,4.905,14.674,13.92,27.77-15.068C375.483,379.448,360.8,380.026,360.8,380.026"/>
		<path clip-path="url(#SVGID_4_)" fill="#003D92" d="M498.978,75.741c0,0,11.343,32.008,4.649,48.753
			c-5.53,13.841-22.283,18.598-31.156,39.368c-1.847,4.322,3.28,8.336,7.069,5.553c4.763-3.498,10.733-7.109,17.302-9.311
			c16.06-5.383,24.338-15.499,25.102-23.03c0.764-7.53,6.957-60.445,6.957-60.445L498.874,64.79L498.978,75.741z"/>
		<path clip-path="url(#SVGID_4_)" fill="#FFC2B0" d="M511.098,110.295c-3.627,1.627-6.76-0.158-6.998-3.986
			s2.509-8.251,6.136-9.878s6.76,0.157,6.999,3.986C517.473,104.245,514.725,108.668,511.098,110.295"/>
		<polygon clip-path="url(#SVGID_4_)" fill="#5986FF" points="343.625,186.246 399.245,170.722 382.152,88.479 326.498,103.831 		
			"/>
		
			<path clip-path="url(#SVGID_4_)" fill="none" stroke="#FFC2B0" stroke-width="15.746" stroke-linecap="round" stroke-miterlimit="10" d="
			M449.87,181.592c-6.057,23.877,53.78,99.677,69.538,44.535c17.314-60.592,7.144-57.103,7.144-57.103"/>
		<path clip-path="url(#SVGID_4_)" fill="#FFFFFF" d="M516.484,153.794c1.686,26.998-1.944,51.437-10.635,77.013
			c-4.531,13.339,16.276,20.123,20.811,6.776c9.265-27.271,13.49-53.978,11.691-82.787
			C537.484,140.904,515.605,139.711,516.484,153.794"/>
		<path clip-path="url(#SVGID_4_)" fill="#FFC2B0" d="M388.273,143.84l5.887,3.512c1.681,1.003,3.878,0.447,4.881-1.234
			s0.448-3.878-1.233-4.881l-5.888-3.512c-1.681-1.003-3.877-0.447-4.88,1.234C386.037,140.64,386.591,142.836,388.273,143.84"/>
		<g opacity="0.19" clip-path="url(#SVGID_4_)">
			<g>
				<defs>
					<rect id="SVGID_9_" x="128.234" y="244.286" width="578.88" height="455.996"/>
				</defs>
				<clipPath id="SVGID_10_">
					<use xlink:href="#SVGID_9_"  overflow="visible"/>
				</clipPath>
				<polygon clip-path="url(#SVGID_10_)" fill="#88BDEB" points="707.114,465.525 345.146,244.287 273.757,391.401 128.234,479.983 
					488.969,700.282 703.369,571.465 617.82,519.176 				"/>
			</g>
		</g>
		<path clip-path="url(#SVGID_4_)" fill="#4265C2" d="M477.813,454.284L477.813,454.284c-2.289-0.396-3.824-2.574-3.428-4.862
			l19.903-114.832c0.396-2.289,2.574-3.824,4.863-3.427s3.823,2.574,3.427,4.864l-19.903,114.83
			C482.28,453.147,480.103,454.682,477.813,454.284"/>
		<path clip-path="url(#SVGID_4_)" fill="#2C4482" d="M584.968,307.642l-72.359,53.138c-11.772,6.818-20.31-0.443-20.001-12.646
			l-0.869-19.902c0.31-12.203,10.193-27.768,21.965-34.587l72.685-42.103c11.771-6.818,21.149-2.413,20.842,9.79l-0.297,11.724
			C606.623,285.258,596.739,300.823,584.968,307.642"/>
		<path clip-path="url(#SVGID_4_)" fill="#2C4482" d="M584.033,429.663l-92.542-62.537c-9.286-5.667-2.087-30.148,12.213-38.946
			l37.108-22.83c14.299-8.796,34.634-17.2,43.92-11.533l99.158,66.992c9.287,5.667,5.185,17.501-9.114,26.298l-37.108,22.83
			C623.368,418.734,593.318,435.33,584.033,429.663"/>
		<path clip-path="url(#SVGID_4_)" fill="#D84177" d="M580.142,435.943l-88.438-54.93c-8.938-5.454-8.413-11.814-8.413-11.814
			c-0.592-8.11,5.027-13.314,13.966-7.859l87.409,54.364c8.939,5.454,12.227,11.006,10.604,17.459
			C595.27,433.163,591.487,442.152,580.142,435.943"/>
		<path clip-path="url(#SVGID_4_)" fill="#4265C2" d="M615.855,526.052L615.855,526.052c2.306-0.284,3.943-2.385,3.659-4.689
			l-14.288-115.664c-0.284-2.307-2.386-3.945-4.69-3.66c-2.307,0.285-3.945,2.385-3.66,4.691l14.288,115.663
			C611.449,524.698,613.548,526.337,615.855,526.052"/>
		<path clip-path="url(#SVGID_4_)" fill="#2C4482" d="M614.439,319.75c-20.577-10.216-29.801-34.566-21.156-55.852l22.866-56.301
			c6.283-15.47,22.862-21.897,35.91-13.921l52.172,31.896c9.398,5.747,14.448,17.59,12.621,29.608l-17.659,106.649L614.439,319.75z"
			/>
		<path clip-path="url(#SVGID_4_)" fill="#3856A6" d="M653.629,210.878l-50.685-21.237l6.915-21.206
			c13.151-0.474,21.47,3.927,32.332,11.122L653.629,210.878z"/>
		<path clip-path="url(#SVGID_4_)" fill="#D0E7F4" d="M583.721,186.121c-5.208,6.785-4.612,10.823-4.404,19.787
			c0.203,8.765,6.209,16.112,14.783,18.131l70.086,18.927c0,0,22.669-31.715,5.42-41.004c-9.292-5.005-23.705-13.028-35.027-19.367
			C617.95,173.284,595.75,170.447,583.721,186.121"/>
		<path clip-path="url(#SVGID_4_)" fill="#D0E7F4" d="M578.396,342.338c2.584,3.216,6.314-90.05,1.436-148.764l98.486,42.199
			c-0.696,44.423-14.021,78.79-8.86,132.678L578.396,342.338z"/>
		<path clip-path="url(#SVGID_4_)" fill="#3856A6" d="M662.43,190.982c0,0-39.146,36.288-41.39,110.269
			c-1.18,38.96-9.232,53.695-12.192,64.079c-1.538,5.397,10.914,8.071,16.01,10.419c10.594,4.881,23.037,7.263,36.552,4.718
			c5.611-1.056,19.033-22.183,19.313-27.506c-1.055-39.302,10.284-62.067-0.827-125.055l-2.121-19.069
			c-0.003-0.019,0.548,4.917,0.545,4.897c-0.827-5.266-3.421-12.597-7.775-15.673L662.43,190.982z"/>
		<path clip-path="url(#SVGID_4_)" fill="#3856A6" d="M607.604,176.76c0,0-20.991,49.806-14.263,174.651
			c0.229,4.22-4.34,7.14-8.249,5.28c-4.166-1.983-8.738-4.774-12.148-6.983c-3.121-2.021-4.881-5.487-4.611-9.128
			c1.863-25.127,5.495-125.872,5.495-125.872s-2.497-44.055,32.674-43.263C648.281,172.385,607.604,176.76,607.604,176.76"/>
		<path clip-path="url(#SVGID_4_)" fill="#FCFEFF" d="M625.599,193.612c0,0-2.796,0.076-4.692-1.1l-13.926,10.971l0.191,0.572
			c0.599,1.779,2.933,2.372,4.448,1.131L625.599,193.612z"/>
		<path clip-path="url(#SVGID_4_)" fill="#FCFEFF" d="M619.955,193.333c0,0,3.066,0.138,5.447-0.163l10.24,14.329l-0.442,0.555
			c-1.376,1.726-4.105,1.855-5.201,0.246L619.955,193.333z"/>
		<path clip-path="url(#SVGID_4_)" fill="#FFC2B0" d="M616.128,191.13l-8.818-34.541l25.604,5.391l7.169,28.207
			C641.688,194.759,622.92,208.629,616.128,191.13"/>
		<path clip-path="url(#SVGID_4_)" fill="#5986FF" d="M622.066,211.822L622.066,211.822c5.078,0.413,9.768-3.364,10.42-8.393
			l1.056-8.136c-7.145,3.781-13.342,2.461-18.302-3.149l-1.222,9.784C613.366,206.958,616.987,211.41,622.066,211.822"/>
		<path clip-path="url(#SVGID_4_)" fill="#5986FF" d="M623.891,207.715l-10.548,76.28c-0.116,0.843-0.541,1.648-1.196,2.268
			l-6.825,6.456c-1.818,1.72-4.687,1.455-5.771-0.532l-3.142-5.755c-0.4-0.733-0.493-1.606-0.26-2.455l21.271-77.696
			L623.891,207.715z"/>
		<path clip-path="url(#SVGID_4_)" fill="#FFFFFF" d="M625.338,193.598c0,0-9.813,1.036-12.765-15.517l-6.591-0.18
			c-0.855,0.801-2.773,0.533-3.28,6.233c-0.301,3.391,0.161,6.772,1.21,9.955l3.061,9.285c0.685,2.082,3.426,2.766,5.176,1.292
			L625.338,193.598z"/>
		<path clip-path="url(#SVGID_4_)" fill="#FFFFFF" d="M620.238,193.373c0,0,11.428,2.551,21.458-14.055l7.86,8.074
			c0.733,1.288,0.821,1.441-0.223,2.764l-13.638,17.231c-1.598,2.023-4.794,2.162-6.042,0.262L620.238,193.373z"/>
		<path clip-path="url(#SVGID_4_)" fill="#4265C2" d="M590.333,175.225c-3.706,17.124-10.865,36.771-8.363,48.625l8.336-1.457
			l-5.22,15.226l6.91,58.658c0,0-0.985-61.665,17.845-127.156C601.831,169.278,599.311,170.944,590.333,175.225"/>
		<path clip-path="url(#SVGID_4_)" fill="#FFC2B0" d="M612.945,179.892l-7.253-0.847c-11.171-1.304-18.93-11.207-17.24-22.007
			l5.576-35.659c1.688-10.8,12.21-18.569,23.381-17.264l7.253,0.847c11.171,1.304,18.929,11.207,17.24,22.007l-3.254,26.157
			C636.96,163.926,624.116,181.196,612.945,179.892"/>
		<path clip-path="url(#SVGID_4_)" fill="#1F3B82" d="M621.521,131.666c-8.202,2.307-12.729,1.352-20.493-3.022
			c-8.424-4.748-7.832-16.257,0.515-21.602c4.514-2.889,5.142-4.854,13.958-6.846c25.01-5.65,50.026,10.988,45.985,36.82
			c0,0-4.646,26.276-20.932,33.899c-3.305,1.546-7.063-1.041-6.851-4.683l0.252-4.333c0,0,5.666-2.206,1.7-7.616
			c-1.09-1.487-2.759-3.24-5.243-5.296c-2.69-2.226-2.559-6.463-1.462-10.692C630.061,134.015,625.924,130.427,621.521,131.666"/>
		<path clip-path="url(#SVGID_4_)" fill="#FFC2B0" d="M640.248,163.999c-3.733,2.118-7.263,0.665-7.881-3.245
			c-0.62-3.91,1.903-8.797,5.638-10.914c3.731-2.118,7.262-0.666,7.881,3.244C646.505,156.994,643.979,161.88,640.248,163.999"/>
		<path clip-path="url(#SVGID_4_)" fill="#5169A8" d="M591.082,143.318c-1.688,10.8,6.068,20.703,17.24,22.008l7.253,0.846
			c6.938,0.811,12.095-6.761,16.903-15.375c1.191,1.104,3.132,0.98,4.234-0.27l0.613-0.696l-2.263,8.407
			c-1.688,10.8-11.239,24.482-22.411,23.178l-7.253-0.848c-11.171-1.304-18.928-11.207-17.239-22.006l5.575-35.66
			c0.235-1.503,0.658-2.939,1.212-4.309L591.082,143.318z"/>
		<path clip-path="url(#SVGID_4_)" fill="#4265C2" d="M662.43,190.982l-14.819,44.08l-11.053-1.463l2.468,17.151l-17.985,50.501
			c0,0-0.377-41.114,13.675-84.613c3.705-11.472,9.719-26.522,7.478-37.081C649.846,182.871,655.651,184.641,662.43,190.982"/>
		<path clip-path="url(#SVGID_4_)" fill="#FFFFFF" d="M594.144,154.67l12.479,7.479c0.516,0.308,0.738,0.928,0.509,1.514
			c-0.815,2.098-3.425,6.424-10.357,2.865c-4.86-2.494-5.179-7.675-4.9-10.685C591.974,154.783,593.247,154.132,594.144,154.67"/>
		<path clip-path="url(#SVGID_4_)" fill="#1F3B82" d="M613.644,149.564c-0.328,1.41-1.177,2.48-1.896,2.391
			c-0.717-0.09-1.033-1.304-0.705-2.714c0.329-1.409,1.177-2.479,1.895-2.39C613.655,146.941,613.971,148.156,613.644,149.564"/>
		<path clip-path="url(#SVGID_4_)" fill="#1F3B82" d="M596.695,141.735c-0.328,1.41-1.176,2.48-1.895,2.391
			c-0.717-0.09-1.032-1.305-0.705-2.714c0.328-1.409,1.177-2.48,1.895-2.39C596.708,139.111,597.023,140.326,596.695,141.735"/>
		<path clip-path="url(#SVGID_4_)" fill="#1F3B82" d="M613.489,142.795c2.539,0.367,5.491,2.261,6.834,4.271
			c0.958,1.436,3.401-0.259,2.444-1.693c-1.729-2.594-5.371-4.85-8.64-5.323C612.321,139.789,611.682,142.533,613.489,142.795"/>
		<path clip-path="url(#SVGID_4_)" fill="#1F3B82" d="M594.272,134.315c2.255-0.15,5.12,0.897,6.55,2.422
			c1.016,1.083,3.058-0.733,2.037-1.821c-1.841-1.962-5.268-3.347-8.191-3.151C593.065,131.873,592.658,134.424,594.272,134.315"/>
		<path clip-path="url(#SVGID_4_)" fill="#3C5CB0" d="M676.129,394.519l-72.684,42.104c-11.771,6.818-20.655,3.268-19.742-7.893
			l0.878-10.721c0.913-11.16,11.292-25.87,23.063-32.689l72.684-42.104c11.771-6.819,20.655-3.267,19.742,7.893l-0.878,10.721
			C698.279,372.99,687.9,387.7,676.129,394.519"/>
		<path clip-path="url(#SVGID_4_)" fill="#353C59" d="M702.198,575.133l0.984-0.127c2.951-0.379,5.036-3.078,4.657-6.029
			l-21.169-164.726c-0.38-2.95-3.078-5.035-6.03-4.656l-0.983,0.127c-2.951,0.379-5.036,3.078-4.656,6.029l21.169,164.726
			C696.549,573.427,699.248,575.512,702.198,575.133"/>
		<path clip-path="url(#SVGID_4_)" fill="#4265C2" d="M487.948,702.681L487.948,702.681c-3.206-0.274-5.581-3.099-5.306-6.305
			l22.89-265.746c0.275-3.206,3.099-5.581,6.305-5.304c3.206,0.275,5.58,3.099,5.304,6.304l-22.888,265.746
			C493.976,700.582,491.154,702.957,487.948,702.681"/>
		<polygon clip-path="url(#SVGID_4_)" fill="#2C4482" points="505.574,564.003 494.489,556.42 497.658,524.498 509.465,526.343 		
			"/>
		<path clip-path="url(#SVGID_4_)" fill="#4265C2" d="M127.895,483.783l-1.404-0.208c-2.25-0.334-3.803-2.428-3.47-4.678
			l25.458-171.659c0.334-2.249,2.428-3.803,4.678-3.469l1.404,0.208c2.25,0.334,3.803,2.428,3.47,4.678l-25.458,171.659
			C132.239,482.564,130.145,484.117,127.895,483.783"/>
		<rect x="126.66" y="292.586" clip-path="url(#SVGID_4_)" fill="#C7E0F5" width="30.896" height="17.943"/>
		<path clip-path="url(#SVGID_4_)" fill="#C7E0F5" d="M512.196,536.914L130.601,316.601c-5.982-3.455-5.232-9.487,1.675-13.475
			l178.061-102.803c6.907-3.988,17.356-4.421,23.338-0.967L715.27,419.669c5.983,3.454,5.233,9.486-1.676,13.475L535.535,535.946
			C528.628,539.936,518.178,540.367,512.196,536.914"/>
		<path clip-path="url(#SVGID_4_)" fill="#AFD5F7" d="M719.31,407.315h-25.437l-170.48,114.696l-0.001,17.214
			c4.264-0.158,8.654-1.265,12.144-3.279l178.06-102.803c3.902-2.254,5.838-5.159,5.704-7.885h0.011V407.315z"/>
		<path clip-path="url(#SVGID_4_)" fill="#EDF7FF" d="M512.196,519.703L130.601,299.389c-5.982-3.455-5.232-9.487,1.675-13.475
			l178.061-102.803c6.907-3.988,17.356-4.421,23.338-0.968L715.27,402.458c5.983,3.453,5.233,9.486-1.676,13.475L535.535,518.735
			C528.628,522.725,518.178,523.156,512.196,519.703"/>
		<path clip-path="url(#SVGID_4_)" fill="#A8C4E5" d="M449.435,324.542l-0.023-3.162l-4.072,1.574l-0.872-2.01l-101.89-58.827
			c-1.228-0.708-3.391-0.618-4.808,0.199l-43.867,25.328v-0.706l-8.114,3.258v3.361h0.056c0.103,0.327,0.357,0.63,0.773,0.869
			l106.028,61.217c1.227,0.708,3.392,0.618,4.809-0.201l50.807-29.333c0.774-0.446,1.169-1.021,1.171-1.567H449.435z"/>
		<path clip-path="url(#SVGID_4_)" fill="#E1EAF4" d="M392.586,352.298l-106.029-61.216c-1.228-0.709-1.073-1.958,0.344-2.776
			l50.808-29.334c1.417-0.818,3.581-0.907,4.808-0.199l106.029,61.216c1.228,0.708,1.071,1.957-0.345,2.776l-50.808,29.333
			C395.977,352.917,393.813,353.006,392.586,352.298"/>
		<path clip-path="url(#SVGID_4_)" fill="#A8C4E5" d="M399.83,312.869l-25.66-14.814c-0.297-0.172-0.26-0.474,0.083-0.672
			l12.297-7.1c0.342-0.198,0.866-0.22,1.163-0.048l25.661,14.815c0.297,0.172,0.259,0.474-0.084,0.672l-12.296,7.099
			C400.65,313.02,400.128,313.042,399.83,312.869"/>
		<path clip-path="url(#SVGID_4_)" fill="#FFFFFF" d="M389.883,283.407c-0.433-2.791-2.618-6.098-4.884-7.385l-105.268-59.824
			c-0.938-0.533-1.739-0.631-2.329-0.372l-0.005-0.003l-0.016,0.012c-0.21,0.096-0.394,0.235-0.544,0.42l-3.486,3.66l3.17-0.281
			l10.004,64.687c0.431,2.791,2.618,6.098,4.883,7.385l99.539,56.568l3.213,3.612l0.401,0.889c2.012,0.437,6.834-2.987,6.834-2.987
			L389.883,283.407z"/>
		<path clip-path="url(#SVGID_4_)" fill="#29479C" d="M392.943,355.436l-105.269-59.824c-2.265-1.288-4.452-4.594-4.883-7.385
			l-10.116-65.402c-0.43-2.79,1.056-4.009,3.322-2.722l105.267,59.825c2.267,1.287,4.452,4.594,4.885,7.384l10.114,65.402
			C396.695,355.505,395.209,356.724,392.943,355.436"/>
		<path clip-path="url(#SVGID_4_)" fill="#FFFFFF" d="M337.003,292.114c0.537,3.474-2.614,4.252-7.039,1.737
			c-4.425-2.514-8.447-7.37-8.985-10.843c-0.538-3.475,2.614-4.253,7.04-1.739C332.443,283.784,336.466,288.64,337.003,292.114"/>
		<polygon clip-path="url(#SVGID_4_)" fill="#FFFFFF" points="513.063,412.214 457.112,379.911 539.747,332.202 595.696,364.505 		
			"/>
		<polygon clip-path="url(#SVGID_4_)" fill="#99C4EB" points="457.112,393.631 457.112,379.911 513.063,412.214 595.696,364.505 
			595.696,378.225 513.063,425.934 		"/>
		<polygon clip-path="url(#SVGID_4_)" fill="#C7E0F5" points="457.112,393.631 457.112,379.911 513.063,412.214 513.063,425.934 		
			"/>
		<path clip-path="url(#SVGID_4_)" fill="#5980AB" d="M502.943,413.453l9.122,5.422c0.592,0.352,1.327,0.351,1.919-0.003
			l15.577-9.325l-15.734,8.044c-0.507,0.259-1.104,0.272-1.622,0.038L502.943,413.453z"/>
		<polygon clip-path="url(#SVGID_4_)" fill="#2C4482" points="521.948,400.516 527.896,397.081 498.659,380.201 492.706,383.637 		
			"/>
		<polygon clip-path="url(#SVGID_4_)" fill="#2C4482" points="495.964,378.663 486.382,373.095 480.433,376.528 490.048,382.079 		
			"/>
		<polygon clip-path="url(#SVGID_4_)" fill="#5986FF" points="571.293,370.018 565.255,366.532 571.256,363.066 577.294,366.553 		
			"/>
		<polygon clip-path="url(#SVGID_4_)" fill="#5986FF" points="561.75,375.54 555.712,372.055 561.713,368.589 567.751,372.075 		"/>
		<polygon clip-path="url(#SVGID_4_)" fill="#5986FF" points="552.397,380.982 546.359,377.497 552.36,374.032 558.398,377.519 		
			"/>
		<polygon clip-path="url(#SVGID_4_)" fill="#5986FF" points="542.485,386.805 536.447,383.319 542.447,379.854 548.486,383.34 		
			"/>
		<polygon clip-path="url(#SVGID_4_)" fill="#88BDEB" points="566.461,361.561 532.179,341.768 529.351,343.401 563.633,363.193 		
			"/>
		<polygon clip-path="url(#SVGID_4_)" fill="#88BDEB" points="557.22,367.262 522.938,347.469 520.109,349.102 554.392,368.895 		
			"/>
		<polygon clip-path="url(#SVGID_4_)" fill="#88BDEB" points="547.432,372.704 513.149,352.911 510.321,354.544 544.604,374.337 		
			"/>
		<polygon clip-path="url(#SVGID_4_)" fill="#88BDEB" points="538.198,379.352 503.916,359.559 501.088,361.191 535.37,380.984 		
			"/>
		<polygon clip-path="url(#SVGID_4_)" fill="#5986FF" points="532.933,393.203 526.895,389.718 532.896,386.253 538.934,389.739 		
			"/>
		<polygon clip-path="url(#SVGID_4_)" fill="#88BDEB" points="528.646,385.751 494.363,365.958 491.535,367.591 525.817,387.384 		
			"/>
		
			<path clip-path="url(#SVGID_4_)" fill="none" stroke="#FFC2B0" stroke-width="15.746" stroke-linecap="round" stroke-miterlimit="10" d="
			M572.865,322.343c0,0,79.009,38.724,92.724-8.021c9.679-32.989,2.547-54.357,0.525-91.112"/>
		<path clip-path="url(#SVGID_4_)" fill="#4367C7" d="M595.687,320.458l-3.004,21.137c0,0,56.095,15.125,73.695-9.703
			c18.581-26.211,21.354-52.583,10.992-119.638c-0.951-6.154-6.514-10.319-12.407-9.272c-5.902,1.05-9.878,6.922-8.83,13.071
			c3.769,22.109,10.389,71.164-0.827,91.469C640.606,334.135,595.687,320.458,595.687,320.458"/>
		
			<path clip-path="url(#SVGID_4_)" fill="none" stroke="#FFC2B0" stroke-width="15.746" stroke-linecap="round" stroke-miterlimit="10" d="
			M568.307,217.286l-29.752,48.319c0,0-3.519,37.925,11.295,61.144"/>
		<path clip-path="url(#SVGID_4_)" fill="#3856A6" d="M583.037,181.503c0,0-49.926,67.751-54.906,88.467
			c-3.723,15.484,1.977,35.898,1.977,35.898l19.381-3.686c0,0-10.688-23.341,6.557-48.099
			c17.244-24.759,21.805-30.873,21.805-30.873L583.037,181.503z"/>
		
			<line clip-path="url(#SVGID_4_)" fill="none" stroke="#FFFFFF" stroke-width="1.069" stroke-linecap="round" stroke-linejoin="round" stroke-miterlimit="10" x1="171.034" y1="218.134" x2="88.252" y2="267.502"/>
		<polygon clip-path="url(#SVGID_4_)" fill="#FFAC00" points="143.503,224.933 167.463,210.932 158.84,169.735 134.88,183.737 		"/>
		<polygon clip-path="url(#SVGID_4_)" fill="#FFAC00" points="114.139,242.094 138.1,228.093 132.46,201.156 108.5,215.157 		"/>
		<polygon clip-path="url(#SVGID_4_)" fill="#FFAC00" points="83.875,259.78 107.834,245.778 96.529,191.769 72.569,205.771 		"/>
		<polygon clip-path="url(#SVGID_4_)" fill="none" stroke="#B3DDFF" stroke-width="1.23" stroke-miterlimit="10" points="
			253.986,52.449 283.215,35.337 275.887,0.961 246.659,18.073 		"/>
		<polygon clip-path="url(#SVGID_4_)" fill="none" stroke="#B3DDFF" stroke-width="1.23" stroke-miterlimit="10" points="
			224.758,69.56 253.986,52.448 246.659,18.072 217.432,35.184 		"/>
		<polygon clip-path="url(#SVGID_4_)" fill="none" stroke="#B3DDFF" stroke-width="1.23" stroke-miterlimit="10" points="
			195.531,86.67 224.759,69.559 217.431,35.183 188.203,52.295 		"/>
		<polygon clip-path="url(#SVGID_4_)" fill="none" stroke="#B3DDFF" stroke-width="1.23" stroke-miterlimit="10" points="
			166.303,103.781 195.531,86.67 188.203,52.295 158.976,69.406 		"/>
		<polygon clip-path="url(#SVGID_4_)" fill="none" stroke="#B3DDFF" stroke-width="1.23" stroke-miterlimit="10" points="
			261.314,86.824 290.542,69.713 283.214,35.337 253.986,52.449 		"/>
		<polygon clip-path="url(#SVGID_4_)" fill="none" stroke="#B3DDFF" stroke-width="1.23" stroke-miterlimit="10" points="
			232.086,103.935 261.314,86.824 253.986,52.449 224.759,69.56 		"/>
		<polygon clip-path="url(#SVGID_4_)" fill="none" stroke="#B3DDFF" stroke-width="1.23" stroke-miterlimit="10" points="
			173.629,138.157 202.858,121.046 195.531,86.67 166.303,103.781 		"/>
		
			<line clip-path="url(#SVGID_4_)" fill="none" stroke="#B3DDFF" stroke-width="1.23" stroke-miterlimit="10" x1="290.542" y1="69.713" x2="297.869" y2="104.088"/>
		<polygon clip-path="url(#SVGID_4_)" fill="none" stroke="#B3DDFF" stroke-width="1.23" stroke-miterlimit="10" points="
			239.413,138.311 268.642,121.2 261.314,86.824 232.086,103.935 		"/>
		<polygon clip-path="url(#SVGID_4_)" fill="none" stroke="#B3DDFF" stroke-width="1.23" stroke-miterlimit="10" points="
			210.186,155.422 239.413,138.311 232.085,103.935 202.858,121.047 		"/>
		<polygon clip-path="url(#SVGID_4_)" fill="none" stroke="#B3DDFF" stroke-width="1.23" stroke-miterlimit="10" points="
			180.958,172.532 210.186,155.421 202.858,121.046 173.63,138.157 		"/>
		
			<line clip-path="url(#SVGID_4_)" fill="none" stroke="#B3DDFF" stroke-width="1.23" stroke-miterlimit="10" x1="297.869" y1="104.089" x2="305.196" y2="138.465"/>
		<polygon clip-path="url(#SVGID_4_)" fill="none" stroke="#B3DDFF" stroke-width="1.23" stroke-miterlimit="10" points="
			275.969,155.575 305.196,138.464 297.869,104.088 268.642,121.2 		"/>
		<polygon clip-path="url(#SVGID_4_)" fill="none" stroke="#B3DDFF" stroke-width="1.23" stroke-miterlimit="10" points="
			246.741,172.687 275.969,155.575 268.641,121.2 239.413,138.312 		"/>
		<polygon clip-path="url(#SVGID_4_)" fill="none" stroke="#B3DDFF" stroke-width="1.23" stroke-miterlimit="10" points="
			217.512,189.798 246.741,172.687 239.413,138.311 210.186,155.422 		"/>
		<polygon clip-path="url(#SVGID_4_)" fill="none" stroke="#B3DDFF" stroke-width="1.23" stroke-miterlimit="10" points="
			188.285,206.908 217.513,189.797 210.185,155.421 180.958,172.532 		"/>
		<path clip-path="url(#SVGID_4_)" fill="#BFDFFF" d="M119.814,129.3l16.644-9.631c1.489-0.862,2.471-3.337,2.184-5.5
			c-0.288-2.162-1.741-3.227-3.23-2.366l-16.644,9.631c-1.488,0.862-2.472,3.337-2.184,5.5
			C116.872,129.097,118.325,130.161,119.814,129.3"/>
		<path clip-path="url(#SVGID_4_)" fill="#BFDFFF" d="M124.749,149.159l16.644-9.631c1.489-0.862,2.472-3.336,2.184-5.499
			c-0.287-2.163-1.74-3.228-3.229-2.367l-16.644,9.632c-1.489,0.861-2.472,3.336-2.184,5.499
			C121.807,148.957,123.261,150.021,124.749,149.159"/>
		<path clip-path="url(#SVGID_4_)" fill="#BFDFFF" d="M92.031,146.044l16.644-9.631c1.488-0.862,2.471-3.336,2.184-5.499
			c-0.288-2.163-1.741-3.228-3.23-2.367l-16.644,9.631c-1.489,0.862-2.472,3.337-2.184,5.5
			C89.089,145.841,90.542,146.906,92.031,146.044"/>
		<path clip-path="url(#SVGID_4_)" fill="#BFDFFF" d="M96.966,165.903l16.643-9.631c1.489-0.862,2.473-3.336,2.185-5.499
			c-0.287-2.163-1.742-3.228-3.23-2.367l-16.643,9.632c-1.49,0.861-2.473,3.336-2.185,5.499
			C94.024,165.701,95.477,166.766,96.966,165.903"/>
		<path clip-path="url(#SVGID_4_)" fill="#BFDFFF" d="M102.12,183.734l16.643-9.631c1.489-0.862,2.473-3.337,2.185-5.5
			c-0.287-2.163-1.741-3.227-3.23-2.366l-16.643,9.631c-1.49,0.862-2.473,3.337-2.185,5.5
			C99.178,183.53,100.631,184.595,102.12,183.734"/>
		<path clip-path="url(#SVGID_4_)" fill="#BFDFFF" d="M64.247,162.788l16.644-9.631c1.489-0.862,2.472-3.336,2.184-5.499
			c-0.287-2.163-1.741-3.228-3.23-2.367l-16.643,9.632c-1.489,0.861-2.472,3.336-2.185,5.499
			C61.305,162.585,62.758,163.65,64.247,162.788"/>
		<path clip-path="url(#SVGID_4_)" fill="#BFDFFF" d="M69.183,182.648l16.644-9.631c1.488-0.862,2.471-3.337,2.184-5.5
			c-0.288-2.163-1.741-3.227-3.23-2.366l-16.644,9.631c-1.489,0.862-2.472,3.337-2.184,5.5
			C66.24,182.444,67.694,183.509,69.183,182.648"/>
		<path clip-path="url(#SVGID_4_)" fill="#FFFFFF" d="M67.533,123.146l59.514-34.779c1.947-1.138,4.182-0.332,4.966,1.79
			c0.783,2.123-0.168,4.79-2.115,5.928l-59.514,34.779c-1.948,1.138-4.182,0.332-4.966-1.79
			C64.634,126.952,65.586,124.285,67.533,123.146"/>
		<path clip-path="url(#SVGID_4_)" fill="#29479C" d="M55.246,130.344l59.515-34.779c1.946-1.138,4.18-0.332,4.964,1.791
			c0.785,2.122-0.167,4.79-2.115,5.927l-59.514,34.78c-1.947,1.137-4.181,0.332-4.965-1.791
			C52.347,134.149,53.299,131.481,55.246,130.344"/>
	</g>
</g>
</svg>
